<?xml version="1.0" standalone="no"?>
<!DOCTYPE svg PUBLIC "-//W3C//DTD SVG 20010904//EN"
 "http://www.w3.org/TR/2001/REC-SVG-20010904/DTD/svg10.dtd">
<svg version="1.0" xmlns="http://www.w3.org/2000/svg"
 width="1200.000000pt" height="1200.000000pt" viewBox="0 0 1200.000000 1200.000000"
 preserveAspectRatio="xMidYMid meet">

<g transform="translate(0.000000,1200.000000) scale(0.100000,-0.100000)"
fill="#000000" stroke="none">
<path d="M0 6000 l0 -6000 6000 0 6000 0 0 6000 0 6000 -6000 0 -6000 0 0
-6000z m6785 2429 l786 -571 1132 -148 c623 -82 1147 -152 1165 -155 l32 -6 0
-692 0 -693 110 -79 c61 -43 110 -81 110 -85 0 -4 -49 -42 -110 -85 l-110 -79
0 -693 0 -693 -22 -4 c-23 -5 -1052 -155 -1863 -271 -247 -36 -464 -69 -480
-73 -17 -5 -369 -255 -783 -555 l-752 -547 -443 322 c-243 177 -574 418 -736
536 -162 117 -304 220 -315 227 -18 12 -767 125 -2056 310 -173 25 -327 47
-343 51 l-27 6 0 698 0 699 -100 72 c-55 40 -100 76 -100 79 0 3 45 39 100 79
l100 72 0 699 0 699 33 6 c17 3 546 73 1175 155 l1143 149 337 245 c185 135
537 391 782 570 245 178 446 325 447 325 1 1 356 -256 788 -570z"/>
<path d="M5255 8269 c-407 -298 -749 -545 -760 -550 -11 -5 -488 -70 -1060
-144 -572 -75 -1069 -140 -1105 -145 -36 -5 -71 -10 -77 -10 -10 0 -13 -141
-13 -670 l0 -670 -50 -37 c-27 -20 -50 -40 -50 -43 0 -3 22 -23 50 -43 l50
-37 0 -669 0 -669 27 -6 c16 -3 201 -31 413 -61 212 -30 719 -104 1127 -164
656 -97 746 -112 775 -132 18 -13 345 -250 726 -526 l692 -503 728 529 727
528 150 21 c235 33 2077 302 2108 308 l27 6 0 663 0 664 60 42 c33 23 60 45
60 49 0 4 -27 26 -60 49 l-60 42 0 665 c0 365 -3 664 -6 664 -17 0 -2211 291
-2221 295 -6 2 -349 249 -762 549 -412 300 -751 546 -753 545 -2 0 -336 -243
-743 -540z m1457 -257 l703 -469 91 -11 c212 -28 1987 -242 2000 -242 12 0 14
-85 14 -578 l0 -578 100 -68 c55 -37 98 -71 95 -75 -2 -4 -47 -36 -100 -71
l-95 -63 0 -578 c0 -467 -3 -579 -13 -579 -20 0 -2099 -279 -2126 -285 -13 -3
-331 -211 -707 -462 l-684 -457 -683 457 -683 458 -1075 144 c-591 80 -1080
145 -1086 145 -10 0 -13 123 -13 584 l0 583 -95 63 c-52 34 -95 64 -95 65 0 1
43 31 95 65 l95 63 0 582 0 582 83 11 c45 6 521 63 1057 127 l975 117 710 474
c390 261 715 472 721 470 7 -3 329 -216 716 -474z"/>
<path d="M8796 6360 c-78 -15 -109 -35 -64 -42 16 -2 24 -10 25 -28 2 -14 -19
-137 -45 -275 l-48 -250 24 -7 c14 -4 37 -5 52 -2 25 5 28 12 40 77 17 99 23
106 43 49 27 -73 71 -122 111 -122 34 0 88 35 120 77 26 35 9 47 -25 18 -24
-20 -34 -23 -49 -15 -22 12 -70 89 -70 111 0 8 26 28 58 44 91 49 115 121 51
156 -31 16 -81 3 -139 -36 l-52 -35 6 28 c24 114 47 246 44 255 -2 9 -24 8
-82 -3z m142 -293 c5 -26 -35 -65 -80 -79 -47 -14 -56 -7 -33 28 44 68 105 95
113 51z"/>
<path d="M4475 6345 c-42 -41 -27 -105 24 -105 57 0 93 77 53 113 -26 24 -49
21 -77 -8z"/>
<path d="M5515 6345 c-42 -41 -27 -105 24 -105 57 0 93 77 53 113 -26 24 -49
21 -77 -8z"/>
<path d="M6846 6283 c-30 -91 -31 -93 -11 -93 8 0 22 16 31 35 25 53 58 75
115 75 33 0 49 -4 49 -12 0 -7 -20 -116 -45 -243 -46 -235 -54 -255 -97 -255
-10 0 -18 -7 -18 -15 0 -12 20 -15 120 -15 96 0 120 3 120 14 0 8 -11 17 -25
20 -15 4 -25 14 -25 24 0 9 20 121 45 247 25 127 45 231 45 233 0 1 22 2 49 2
42 0 53 -4 70 -26 12 -15 21 -40 21 -55 0 -22 5 -29 19 -29 17 0 20 9 23 81 2
45 0 83 -3 85 -4 2 -20 -1 -37 -7 -34 -11 -363 -7 -398 5 -20 7 -24 1 -48 -71z"/>
<path d="M2994 6341 c-12 -12 -2 -31 16 -31 11 0 23 -7 26 -15 5 -13 -64 -406
-83 -468 -3 -11 -20 -25 -39 -33 -67 -28 -38 -34 169 -34 l203 0 36 74 c34 68
37 86 17 86 -5 0 -22 -20 -39 -45 -40 -57 -74 -75 -148 -75 -64 0 -84 12 -77
46 3 10 23 113 45 229 23 115 46 215 52 222 6 7 21 13 34 13 16 0 24 6 24 18
0 15 -12 17 -116 17 -64 0 -118 -2 -120 -4z"/>
<path d="M5194 6237 c-40 -26 -50 -38 -52 -65 -2 -22 -8 -32 -20 -32 -21 0
-62 -27 -62 -41 0 -5 14 -9 30 -9 17 0 30 -5 30 -12 0 -7 -11 -70 -25 -141
-27 -140 -23 -172 19 -183 13 -3 36 1 52 9 38 20 104 86 104 103 0 21 -11 17
-42 -13 -43 -41 -49 -21 -27 92 29 154 23 143 72 147 34 2 42 7 42 23 0 16 -8
21 -38 23 -36 3 -38 5 -33 33 3 16 9 42 12 58 8 42 -6 44 -62 8z"/>
<path d="M4027 6155 c-71 -25 -107 -75 -107 -147 0 -50 19 -82 62 -104 l31
-16 -48 -27 c-65 -35 -77 -56 -47 -80 l24 -17 -42 -19 c-73 -33 -92 -91 -44
-138 35 -35 85 -50 154 -45 112 8 200 78 200 159 0 46 -35 79 -110 104 -27 9
-50 22 -50 29 0 7 18 18 41 25 22 7 58 28 79 47 56 51 70 101 44 168 -5 13 1
16 30 16 23 0 36 5 36 13 0 22 -44 36 -82 28 -20 -5 -42 -5 -49 -1 -30 16 -86
18 -122 5z m84 -41 c22 -27 18 -128 -7 -161 -42 -56 -84 -34 -84 44 0 94 53
162 91 117z m-26 -413 c44 -26 41 -61 -8 -85 -33 -16 -45 -17 -77 -7 -43 13
-56 25 -65 63 -5 21 -1 33 19 53 25 25 26 25 63 10 21 -9 51 -24 68 -34z"/>
<path d="M3627 6150 c-74 -23 -158 -126 -177 -217 -20 -94 15 -161 95 -176
109 -21 255 127 255 259 0 65 -12 98 -42 118 -30 19 -95 28 -131 16z m59 -56
c11 -44 -3 -159 -28 -220 -25 -62 -67 -99 -88 -78 -18 18 -13 143 9 213 30 98
92 147 107 85z"/>
<path d="M4445 6148 c-31 -17 -105 -91 -105 -105 0 -20 11 -16 42 14 47 45 51
22 23 -116 -14 -68 -22 -134 -19 -147 8 -31 38 -48 71 -39 29 7 123 92 123
111 0 21 -11 17 -42 -13 -47 -45 -51 -22 -23 116 14 68 22 134 19 147 -10 40
-50 54 -89 32z"/>
<path d="M4785 6145 c-54 -19 -85 -59 -85 -111 0 -45 20 -76 88 -141 42 -40
52 -69 30 -91 -21 -21 -46 -13 -74 23 -39 51 -94 44 -94 -12 0 -70 159 -79
228 -12 59 57 47 120 -38 204 -60 60 -70 81 -48 103 20 20 42 13 71 -23 32
-40 59 -45 81 -14 21 30 6 61 -35 76 -45 16 -75 15 -124 -2z"/>
<path d="M5485 6148 c-31 -17 -105 -91 -105 -105 0 -20 11 -16 42 14 47 45 51
22 23 -116 -14 -68 -22 -134 -19 -147 8 -31 38 -48 71 -39 29 7 123 92 123
111 0 21 -11 17 -42 -13 -47 -45 -51 -22 -23 116 14 68 22 134 19 147 -10 40
-50 54 -89 32z"/>
<path d="M5865 6141 c-88 -41 -158 -154 -159 -258 -1 -57 2 -65 31 -94 53 -54
117 -42 206 39 24 23 36 52 21 52 -3 0 -20 -11 -38 -25 -40 -30 -81 -33 -96
-6 -15 30 -11 140 8 195 21 61 47 80 68 51 46 -63 73 -72 99 -31 23 34 11 72
-27 85 -43 15 -67 13 -113 -8z"/>
<path d="M6215 6145 c-54 -19 -85 -59 -85 -111 0 -45 20 -76 88 -141 42 -40
52 -69 30 -91 -21 -21 -46 -13 -74 23 -39 51 -94 44 -94 -12 0 -70 159 -79
228 -12 59 57 47 120 -38 204 -60 60 -70 81 -48 103 20 20 42 13 71 -23 32
-40 59 -45 81 -14 21 30 6 61 -35 76 -45 16 -75 15 -124 -2z"/>
<path d="M7415 6148 c-31 -17 -105 -91 -105 -105 0 -20 11 -16 42 14 46 44 50
22 23 -122 -14 -72 -27 -140 -30 -152 -4 -17 0 -23 23 -28 55 -12 78 7 92 76
16 73 81 213 106 227 13 7 27 5 51 -6 32 -15 35 -15 52 4 31 31 35 60 12 83
-12 12 -29 21 -38 21 -32 0 -83 -39 -112 -85 l-29 -46 1 51 c2 41 -2 55 -17
66 -23 17 -44 17 -71 2z"/>
<path d="M7845 6144 c-43 -22 -95 -75 -95 -96 0 -24 4 -23 34 7 14 14 30 25
36 25 14 0 12 -52 -5 -130 -8 -36 -14 -91 -15 -122 0 -48 3 -59 21 -68 34 -18
63 -4 121 59 l55 59 -5 -48 c-4 -43 -2 -50 21 -64 17 -12 34 -15 53 -10 35 9
129 98 119 114 -5 8 -16 4 -34 -14 -32 -30 -51 -33 -51 -8 0 10 11 76 25 147
14 72 25 135 25 142 0 16 -35 26 -69 18 -26 -5 -31 -13 -46 -73 -25 -104 -90
-232 -116 -232 -13 0 -11 65 6 140 21 96 19 136 -7 154 -28 20 -36 20 -73 0z"/>
<path d="M8435 6141 c-88 -41 -158 -154 -159 -258 -1 -57 2 -65 31 -94 53 -54
117 -42 206 39 24 23 36 52 21 52 -3 0 -20 -11 -38 -25 -40 -30 -81 -33 -96
-6 -15 30 -11 140 8 195 21 61 47 80 68 51 46 -63 73 -72 99 -31 23 34 11 72
-27 85 -43 15 -67 13 -113 -8z"/>
</g>
</svg>
