<?xml version="1.0" standalone="no"?>
<!DOCTYPE svg PUBLIC "-//W3C//DTD SVG 20010904//EN"
 "http://www.w3.org/TR/2001/REC-SVG-20010904/DTD/svg10.dtd">
<svg version="1.0" xmlns="http://www.w3.org/2000/svg"
 width="1200.000000pt" height="1200.000000pt" viewBox="0 0 1200.000000 1200.000000"
 preserveAspectRatio="xMidYMid meet">

<g transform="translate(0.000000,1200.000000) scale(0.100000,-0.100000)"
fill="#000000" stroke="none">
<path d="M8796 6360 c-44 -8 -81 -21 -84 -28 -2 -7 5 -12 15 -12 41 0 40 -15
-12 -288 l-51 -267 24 -7 c14 -4 37 -5 52 -2 25 5 28 12 40 77 17 99 23 106
43 49 27 -73 71 -122 111 -122 34 0 88 35 120 77 26 35 9 47 -25 18 -24 -20
-34 -23 -49 -15 -22 12 -70 89 -70 111 0 8 26 28 58 45 87 46 112 114 56 151
-33 21 -81 10 -144 -32 l-52 -35 6 28 c24 114 47 246 44 255 -2 9 -24 8 -82
-3z m142 -293 c5 -26 -35 -65 -80 -79 -47 -14 -56 -7 -33 28 44 68 105 95 113
51z"/>
<path d="M4475 6345 c-42 -41 -27 -105 24 -105 57 0 93 77 53 113 -26 24 -49
21 -77 -8z"/>
<path d="M5515 6345 c-42 -41 -27 -105 24 -105 57 0 93 77 53 113 -26 24 -49
21 -77 -8z"/>
<path d="M6846 6283 c-30 -91 -31 -93 -11 -93 8 0 22 16 31 35 25 53 58 75
115 75 33 0 49 -4 49 -12 0 -7 -20 -116 -45 -243 -46 -235 -53 -255 -97 -255
-10 0 -18 -7 -18 -15 0 -12 20 -15 120 -15 96 0 120 3 120 14 0 8 -11 17 -25
20 -15 4 -25 14 -25 24 0 9 20 121 45 247 25 127 45 231 45 233 0 1 22 2 49 2
42 0 53 -4 70 -26 12 -15 21 -40 21 -55 0 -22 5 -29 19 -29 17 0 20 9 23 81 2
45 0 83 -3 85 -3 2 -23 -1 -43 -7 -41 -11 -358 -7 -392 5 -20 7 -24 1 -48 -71z"/>
<path d="M2994 6341 c-12 -12 -2 -31 16 -31 11 0 23 -7 26 -15 5 -13 -65 -409
-82 -468 -3 -11 -21 -25 -40 -33 -67 -28 -38 -34 169 -34 l203 0 36 74 c34 68
37 86 17 86 -5 0 -22 -20 -39 -45 -40 -57 -74 -75 -148 -75 -64 0 -84 12 -77
46 3 10 23 113 45 228 22 116 46 216 52 223 6 7 21 13 34 13 16 0 24 6 24 18
0 15 -12 17 -116 17 -64 0 -118 -2 -120 -4z"/>
<path d="M5195 6239 c-39 -24 -55 -47 -55 -76 0 -15 -6 -23 -18 -23 -21 0 -62
-27 -62 -41 0 -5 14 -9 30 -9 17 0 30 -5 30 -12 0 -7 -11 -70 -25 -141 -27
-140 -23 -172 19 -183 13 -3 36 1 52 9 38 20 104 86 104 103 0 21 -11 17 -42
-13 -43 -42 -50 -21 -28 92 30 155 24 143 73 147 34 2 42 7 42 23 0 16 -8 21
-38 23 -42 4 -40 -6 -21 92 5 25 2 30 -13 29 -10 0 -31 -9 -48 -20z"/>
<path d="M4043 6160 c-75 -17 -123 -76 -123 -150 0 -52 18 -83 62 -106 l31
-16 -48 -27 c-65 -35 -77 -56 -47 -80 l24 -17 -42 -19 c-73 -33 -92 -91 -44
-138 77 -78 267 -53 330 43 52 78 26 134 -78 171 -32 12 -58 27 -58 34 0 6 18
17 41 24 22 7 58 28 79 47 56 51 70 101 44 168 -5 13 1 16 30 16 23 0 36 5 36
13 0 22 -44 36 -82 28 -20 -5 -42 -5 -49 -1 -25 13 -73 17 -106 10z m68 -46
c22 -27 18 -128 -7 -161 -42 -56 -84 -34 -84 44 0 94 53 162 91 117z m-4 -426
c24 -20 10 -52 -30 -72 -33 -16 -45 -17 -77 -7 -43 13 -56 25 -65 63 -5 21 -1
33 19 53 l25 25 57 -25 c32 -14 64 -31 71 -37z"/>
<path d="M3627 6150 c-73 -23 -158 -125 -178 -215 -37 -168 115 -240 251 -118
105 94 136 266 58 317 -30 19 -95 28 -131 16z m59 -56 c11 -42 -3 -155 -26
-217 -35 -92 -96 -116 -102 -40 -7 88 20 208 58 253 32 38 61 39 70 4z"/>
<path d="M4445 6148 c-31 -17 -105 -91 -105 -105 0 -20 11 -16 42 14 47 45 51
22 23 -116 -14 -68 -22 -134 -19 -147 8 -31 38 -48 71 -39 29 7 123 92 123
111 0 21 -11 17 -42 -13 -47 -45 -51 -22 -23 116 14 68 22 134 19 147 -10 40
-50 54 -89 32z"/>
<path d="M4785 6145 c-54 -19 -85 -59 -85 -111 0 -45 20 -76 88 -141 42 -40
52 -69 30 -91 -21 -21 -46 -13 -74 23 -39 51 -94 44 -94 -12 0 -70 159 -79
228 -12 59 57 47 120 -38 204 -60 60 -70 81 -48 103 20 20 42 13 71 -23 32
-40 59 -45 81 -14 21 30 6 61 -35 76 -45 16 -75 15 -124 -2z"/>
<path d="M5485 6148 c-31 -17 -105 -91 -105 -105 0 -20 11 -16 42 14 47 45 51
22 23 -116 -14 -68 -22 -134 -19 -147 8 -31 38 -48 71 -39 29 7 123 92 123
111 0 21 -11 17 -42 -13 -47 -45 -51 -22 -23 116 14 68 22 134 19 147 -10 40
-50 54 -89 32z"/>
<path d="M5865 6141 c-88 -41 -158 -154 -159 -258 -1 -57 2 -65 31 -94 53 -54
117 -42 206 39 24 23 36 52 21 52 -3 0 -20 -11 -38 -25 -40 -30 -81 -33 -96
-6 -15 30 -11 140 8 195 21 61 47 80 68 51 46 -63 73 -72 99 -31 23 34 11 72
-27 85 -43 15 -67 13 -113 -8z"/>
<path d="M6215 6145 c-54 -19 -85 -59 -85 -111 0 -45 20 -76 88 -141 42 -40
52 -69 30 -91 -21 -21 -46 -13 -74 23 -39 51 -94 44 -94 -12 0 -70 159 -79
228 -12 59 57 47 120 -38 204 -60 60 -70 81 -48 103 20 20 42 13 71 -23 32
-40 59 -45 81 -14 21 30 6 61 -35 76 -45 16 -75 15 -124 -2z"/>
<path d="M7415 6148 c-31 -17 -105 -91 -105 -105 0 -20 11 -16 42 14 46 44 50
22 23 -122 -14 -72 -27 -140 -30 -151 -6 -26 25 -37 72 -28 27 5 31 11 43 70
14 75 80 217 106 232 13 7 27 5 51 -6 32 -15 35 -15 52 4 31 31 35 60 12 83
-12 12 -29 21 -38 21 -32 0 -83 -39 -112 -85 l-29 -46 1 51 c2 41 -2 55 -17
66 -23 17 -44 17 -71 2z"/>
<path d="M7845 6144 c-43 -22 -95 -75 -95 -96 0 -24 4 -23 34 7 49 49 57 23
31 -100 -8 -39 -15 -96 -15 -127 0 -48 3 -59 21 -68 34 -18 63 -4 121 59 l55
59 -5 -48 c-4 -43 -2 -50 21 -64 17 -12 34 -15 53 -10 35 9 129 98 119 114 -5
8 -16 4 -34 -14 -32 -30 -51 -33 -51 -8 0 10 11 76 25 147 14 72 25 135 25
141 0 15 -44 26 -74 18 -20 -5 -27 -16 -35 -53 -21 -101 -94 -251 -121 -251
-14 0 -12 63 5 140 21 96 19 136 -7 154 -28 20 -36 20 -73 0z"/>
<path d="M8435 6141 c-88 -41 -158 -154 -159 -258 -1 -57 2 -65 31 -94 53 -54
117 -42 206 39 24 23 36 52 21 52 -3 0 -20 -11 -38 -25 -40 -30 -81 -33 -96
-6 -15 30 -11 140 8 195 21 61 47 80 68 51 46 -63 73 -72 99 -31 23 34 11 72
-27 85 -43 15 -67 13 -113 -8z"/>
</g>
</svg>
